<svg width="28" height="28" viewBox="0 0 28 28" fill="none" xmlns="http://www.w3.org/2000/svg">
<path d="M5.60329 11.8207V17.3654H4.12917V11.8207H2.15385V10.6346H7.57861V11.8207H5.60329Z" fill="#1E40FF"/>
<path d="M12.2821 17.3654L11.8497 15.7454H9.97267L9.55009 17.3654H8.05632L9.91371 10.6346H11.9971L13.8545 17.3654H12.2821ZM10.9554 12.0328H10.8768L10.2085 14.5786H11.6237L10.9554 12.0328Z" fill="#1E40FF"/>
<path d="M14.6958 10.6346H16.1798V13.3732H17.0446L18.1453 10.6346H19.6096L18.6465 13.0357C18.5351 13.3057 18.4204 13.5018 18.3025 13.6239C18.1846 13.7461 18.0372 13.8264 17.8603 13.865V13.9228C18.0372 13.9614 18.1813 14.0353 18.2927 14.1446C18.4041 14.2475 18.5122 14.4275 18.617 14.6846L19.2066 16.1793H19.757V17.3654H19.0297C18.7218 17.3654 18.4696 17.2979 18.273 17.1629C18.083 17.0279 17.9225 16.79 17.7915 16.4493L17.0446 14.54H16.1798V17.3654H14.6958V10.6346Z" fill="#1E40FF"/>
<path d="M23.8708 11.8207V17.3654H22.3967V11.8207H20.4214V10.6346H25.8462V11.8207H23.8708Z" fill="#1E40FF"/>
<path d="M14 0.5C21.4558 0.5 27.5 6.54416 27.5 14C27.5 21.4558 21.4558 27.5 14 27.5C6.54416 27.5 0.5 21.4558 0.5 14C0.500001 6.54416 6.54416 0.500001 14 0.5Z" stroke="#1E40FF"/>
</svg>
